<svg xmlns="http://www.w3.org/2000/svg" xmlns:xlink="http://www.w3.org/1999/xlink" viewBox="0 0 220.265 60.186">
  <defs>
    <style>
      .cls-1 {
        fill: #ffffff;
      }

      .cls-2 {
        fill: #ffffff;
      }

      .cls-3 {
        fill: #ffffff;
      }

      .cls-4 {
        fill: #ffffff;
      }

      .cls-5 {
        fill: #ffffff;
      }
    </style>
    <linearGradient id="linear-gradient" x1="0.25" y1="0.465" x2="0.508" y2="0.925" gradientUnits="objectBoundingBox">
      <stop offset="0" stop-color="#6ebe8c"/>
      <stop offset="1" stop-color="#50a087"/>
    </linearGradient>
  </defs>
  <g id="Arte_1" data-name="Arte 1" transform="translate(110.133 30.093)">
    <g id="Arte_1-2" data-name="Arte 1" transform="translate(-110.133 -30.093)">
      <g id="Group_59" data-name="Group 59" transform="translate(78.901 29.591)">
        <path id="Path_49" data-name="Path 49" class="cls-1" d="M147.714,52.707l-2.74,3a7.518,7.518,0,0,0-3.114-1.277,1.687,1.687,0,0,0-1.262.553,1.835,1.835,0,0,0-.527,1.315q0,1.51,2.74,2.616a19.042,19.042,0,0,1,3.036,1.55,5.547,5.547,0,0,1,1.72,1.923,5.335,5.335,0,0,1,.693,2.662,6.02,6.02,0,0,1-2.125,4.577,7.189,7.189,0,0,1-5.021,1.946q-3.176,0-6.274-2.989l2.9-3.378a5.387,5.387,0,0,0,3.643,2.008,2.194,2.194,0,0,0,1.526-.706,2.066,2.066,0,0,0,.732-1.483q0-1.6-3.378-2.82a11.1,11.1,0,0,1-2.74-1.318,4.7,4.7,0,0,1-1.362-1.791,5.594,5.594,0,0,1-.553-2.405,5.842,5.842,0,0,1,1.775-4.422,6.437,6.437,0,0,1,4.639-1.7A8.075,8.075,0,0,1,147.714,52.707Z" transform="translate(-134.841 -50.568)"/>
        <path id="Path_50" data-name="Path 50" class="cls-1" d="M158.809,61.11a10.053,10.053,0,0,1,3-7.48,9.788,9.788,0,0,1,7.107-2.95,10.157,10.157,0,0,1,10.493,10.462,10.19,10.19,0,0,1-2.942,7.473,9.993,9.993,0,0,1-7.411,2.973,9.839,9.839,0,0,1-7.356-2.958,10.32,10.32,0,0,1-2.887-7.519Zm10.306-6.352a5.073,5.073,0,0,0-4.141,1.775,6.937,6.937,0,0,0-1.572,4.7,6.511,6.511,0,0,0,1.6,4.515,5.2,5.2,0,0,0,4.048,1.791,5.3,5.3,0,0,0,4.149-1.767,6.735,6.735,0,0,0,1.58-4.663,6.6,6.6,0,0,0-1.549-4.577A5.4,5.4,0,0,0,169.115,54.758Z" transform="translate(-144.781 -50.611)"/>
        <path id="Path_51" data-name="Path 51" class="cls-1" d="M197.234,51.055h4.375V67.089h6.027v4.406h-10.4Z" transform="translate(-160.723 -50.77)"/>
        <path id="Path_52" data-name="Path 52" class="cls-1" d="M217.112,51.055h4.344v12.5a3.994,3.994,0,0,0,.966,2.8,3.269,3.269,0,0,0,2.538,1.059,3.647,3.647,0,0,0,2.8-1.066,4.247,4.247,0,0,0,.995-3.012V51.055h4.33V64.288a8.325,8.325,0,0,1-.9,3.62A6.253,6.253,0,0,1,229.4,70.78a8.8,8.8,0,0,1-4.2.995q-4.2,0-6.149-2.341a7.612,7.612,0,0,1-1.946-4.927Z" transform="translate(-168.969 -50.77)"/>
        <path id="Path_53" data-name="Path 53" class="cls-1" d="M247.178,51.055h13.747V55.4h-4.685V71.5h-4.406V55.4h-4.655Z" transform="translate(-181.441 -50.77)"/>
        <path id="Path_54" data-name="Path 54" class="cls-1" d="M273.173,51.055h4.4V71.5h-4.406Z" transform="translate(-192.224 -50.77)"/>
        <path id="Path_55" data-name="Path 55" class="cls-1" d="M283.338,61.11a10.053,10.053,0,0,1,3-7.48,9.788,9.788,0,0,1,7.107-2.95,10.157,10.157,0,0,1,10.493,10.462,10.19,10.19,0,0,1-2.942,7.473,9.993,9.993,0,0,1-7.411,2.973,9.839,9.839,0,0,1-7.356-2.958,10.32,10.32,0,0,1-2.888-7.519Zm10.307-6.352a5.072,5.072,0,0,0-4.141,1.775,6.937,6.937,0,0,0-1.572,4.7,6.511,6.511,0,0,0,1.6,4.515,5.2,5.2,0,0,0,4.048,1.791,5.3,5.3,0,0,0,4.149-1.767,6.735,6.735,0,0,0,1.58-4.663,6.6,6.6,0,0,0-1.549-4.577,5.4,5.4,0,0,0-4.118-1.775Z" transform="translate(-196.439 -50.611)"/>
        <path id="Path_56" data-name="Path 56" class="cls-1" d="M334.964,51.055h4.313V71.5h-4.292l-9.349-13.233V71.5h-4.406V51.055h4.356l9.377,13.14Z" transform="translate(-212.161 -50.77)"/>
        <path id="Path_57" data-name="Path 57" class="cls-1" d="M366.356,52.706l-2.739,3a7.518,7.518,0,0,0-3.114-1.277,1.687,1.687,0,0,0-1.262.553,1.835,1.835,0,0,0-.527,1.315q0,1.51,2.74,2.616a19.043,19.043,0,0,1,3.036,1.55,5.548,5.548,0,0,1,1.72,1.923,5.334,5.334,0,0,1,.693,2.662,6.02,6.02,0,0,1-2.125,4.577,7.188,7.188,0,0,1-5.021,1.946q-3.176,0-6.274-2.989l2.9-3.378a5.387,5.387,0,0,0,3.643,2.008,2.194,2.194,0,0,0,1.526-.706,2.066,2.066,0,0,0,.732-1.483q0-1.6-3.378-2.82a11.1,11.1,0,0,1-2.74-1.318A4.7,4.7,0,0,1,354.8,59.1a5.6,5.6,0,0,1-.553-2.405,5.842,5.842,0,0,1,1.775-4.422,6.437,6.437,0,0,1,4.639-1.7,8.075,8.075,0,0,1,5.694,2.132Z" transform="translate(-225.54 -50.568)"/>
      </g>
      <g id="Group_60" data-name="Group 60" transform="translate(62.642 1.527)">
        <path id="Path_58" data-name="Path 58" class="cls-2" d="M116.474,3.165H120.4l9.58,23.515h-5.1L123,22.057h-9.025l-1.843,4.623h-5.073Zm1.964,7.7L115.673,17.8h5.588Z" transform="translate(-107.056 -2.84)"/>
        <path id="Path_59" data-name="Path 59" class="cls-2" d="M153.595,13.5v4.585h5.57a5.559,5.559,0,0,1-2.319,2.955,6.173,6.173,0,0,1-3,.788,6.564,6.564,0,0,1-4.9-2.107,7.107,7.107,0,0,1-2.033-5.131,6.862,6.862,0,0,1,2.033-4.943A6.447,6.447,0,0,1,157,8.457a7.267,7.267,0,0,1,2.615,2.731l3.367-3.152a10.565,10.565,0,0,0-9.528-5.426,11.242,11.242,0,0,0-8.3,3.493,11.578,11.578,0,0,0-3.029,5.2l5.58,14.038a10.992,10.992,0,0,0,5.571,1.427,12.33,12.33,0,0,0,5.319-1.245,9.752,9.752,0,0,0,4.244-3.94,9.922,9.922,0,0,0,1.612-5.041V13.5Z" transform="translate(-121.603 -2.609)"/>
        <path id="Path_60" data-name="Path 60" class="cls-2" d="M183.217,3.165h5.032V21.611h6.93V26.68H183.217Z" transform="translate(-138.65 -2.84)"/>
      </g>
      <g id="Group_61" data-name="Group 61">
        <path id="Path_61" data-name="Path 61" class="cls-3" d="M32.849,28.072,60.646,0,44.554,43.962Z" transform="translate(-13.631)"/>
        <path id="Path_62" data-name="Path 62" class="cls-4" d="M41.33,46.026l10.439,6.933-1.613,4.369Z" transform="translate(-17.149 -19.093)"/>
        <path id="Path_63" data-name="Path 63" class="cls-5" d="M48.374,66.682,6.022,66.67H2.352a2.348,2.348,0,0,1-1.662-4L22.341,40.89l.109-.109,2.3-2.308c-.4.479-2.027,2.794,1.029,5.825Z" transform="translate(-0.007 -15.96)"/>
        <path id="Path_64" data-name="Path 64" class="cls-3" d="M105.426,83.171,77.338,55.41H95.131a2.218,2.218,0,0,1,2.123,1.56Z" transform="translate(-32.086 -22.986)"/>
      </g>
    </g>
  </g>
</svg>
